<svg xmlns="http://www.w3.org/2000/svg" viewBox="0 0 235.58 50.01"><defs><style>.a{fill:#ff7900;}.b{fill:#00b3d0;}.c{fill:#b3d621;}.d{fill:#cc44b2;}.e{fill:#ffd921;}.f{fill:#fff;}</style></defs><title>logo_irazoo_white</title><path class="a" d="M25,36.37C32.33,36.37,36.4,32.3,36.4,25a6.82,6.82,0,1,1,6.82,6.82h0c-7.29,0-11.36,4.07-11.36,11.36A6.82,6.82,0,1,1,25,36.37h0Z"/><path class="b" d="M6.86,36.37c7.32,0,11.32-4.07,11.32-11.39A6.82,6.82,0,1,1,25,31.8c-7.29,0-11.36,4.07-11.36,11.36a6.82,6.82,0,1,1-6.82-6.82h0Z"/><path class="c" d="M6.86,18.19c7.29,0,11.36-4.07,11.36-11.36A6.82,6.82,0,1,1,25,13.65c-7.29,0-11.36,4.07-11.36,11.36a6.82,6.82,0,1,1-6.82-6.82Z"/><path class="d" d="M36.4,43.19A6.82,6.82,0,1,1,43.25,50h-.07a6.82,6.82,0,0,1-6.82-6.82h0Z"/><path class="b" d="M36.4,6.82a6.82,6.82,0,1,1,6.82,6.82A6.82,6.82,0,0,1,36.4,6.82Z"/><path class="e" d="M0,6.82a6.82,6.82,0,1,1,6.82,6.82A6.82,6.82,0,0,1,0,6.82Z"/><path class="f" d="M67,9V7.32A2.06,2.06,0,0,1,69.26,5H71.7A2.1,2.1,0,0,1,74,7.32V9a2.06,2.06,0,0,1-2.33,2.27H69.26A2,2,0,0,1,67,9Zm0,9.42a2.06,2.06,0,0,1,2.27-2.33H71.7A2.06,2.06,0,0,1,74,18.4V42a2,2,0,0,1-2.27,2.33H69.26A2,2,0,0,1,67,42V18.4Z"/><path class="f" d="M81.68,7.33A2.06,2.06,0,0,1,83.95,5H94.58c3.88,0,5.82.33,7.48,1.05,4,1.66,6.59,5.43,6.59,10.75,0,4.65-2.44,9.09-6.54,10.75v.11a14.2,14.2,0,0,1,1.27,2l6.48,11.86c.94,1.61.22,2.77-1.61,2.77h-3a2.81,2.81,0,0,1-2.71-1.61L95.61,29.61H88.74V42a2,2,0,0,1-2.27,2.33H83.92A2,2,0,0,1,81.68,42Zm13.5,16.12c3.82,0,6.2-2.38,6.2-6.26,0-2.49-.94-4.49-3.1-5.37A9.84,9.84,0,0,0,94,11.16H88.75v12.3h6.43Z"/><path class="f" d="M129.43,26.89h1.16v-.66c0-3.71-2.38-5-5.26-5a12.76,12.76,0,0,0-5.87,1.61c-1.38.61-2.44.39-3.1-.94l-.55-1.05a2.06,2.06,0,0,1,.89-3.1A20.05,20.05,0,0,1,126,15.42c7.31,0,11.69,4.1,11.69,11.25V42a2.06,2.06,0,0,1-2.33,2.33h-1.88A2,2,0,0,1,131.18,42V40.87a5.54,5.54,0,0,1,.11-1.22h-.11a10.29,10.29,0,0,1-8.9,5.33c-5.15,0-9.36-3.32-9.36-8.48C112.92,28.27,123.12,26.89,129.43,26.89Zm-5.25,12.74c3.93,0,6.48-4,6.48-7.42v-1H129.5c-3.55,0-9.58.55-9.58,4.76C119.9,37.8,121.34,39.63,124.18,39.63Z"/><path class="f" d="M142.18,41.9a3.5,3.5,0,0,1,1-2.6l11.69-14.63a32.28,32.28,0,0,1,2.38-2.6V22a21.11,21.11,0,0,1-2.6.11h-9.58a2.08,2.08,0,0,1-2.33-2.33V18.43a2.08,2.08,0,0,1,2.33-2.33h19.39c1.5,0,2.33.66,2.33,1.88v.55a3.5,3.5,0,0,1-1,2.6L154.18,35.81a20.66,20.66,0,0,1-2.44,2.6v.11a15.32,15.32,0,0,1,2.66-.17h10.53a2.08,2.08,0,0,1,2.25,2.33V42a2.06,2.06,0,0,1-2.33,2.33H144.56c-1.5,0-2.33-.67-2.33-1.88v-.55Z"/><path class="f" d="M185.55,15.42c8.59,0,15.57,6.15,15.57,14.79S194.18,45,185.55,45,170,38.89,170,30.19,177,15.42,185.55,15.42Zm0,23.6a8.82,8.82,0,0,0,0-17.62c-4.6,0-8.37,3.6-8.37,8.81S181,39,185.55,39Z"/><path class="f" d="M220,15.42c8.59,0,15.57,6.15,15.57,14.79S228.58,45,220,45,204.5,38.91,204.5,30.21,211.43,15.42,220,15.42ZM220,39a8.82,8.82,0,0,0,0-17.62c-4.6,0-8.37,3.6-8.37,8.81S215.42,39,220,39Z"/></svg>